<svg width="31" height="32" viewBox="0 0 31 32" fill="none" xmlns="http://www.w3.org/2000/svg">
<path d="M27.5 14.7055V5.81818C27.5 5.04664 27.1839 4.3067 26.6213 3.76114C26.0587 3.21558 25.2956 2.90909 24.5 2.90909H18.23C17.6 1.22182 15.95 0 14 0C12.05 0 10.4 1.22182 9.77 2.90909H3.5C1.85 2.90909 0.5 4.21818 0.5 5.81818V26.1818C0.5 26.9534 0.81607 27.6933 1.37868 28.2389C1.94129 28.7844 2.70435 29.0909 3.5 29.0909H12.665C14.555 30.8945 17.135 32 20 32C25.805 32 30.5 27.4473 30.5 21.8182C30.5 19.04 29.36 16.5382 27.5 14.7055ZM14 2.90909C14.825 2.90909 15.5 3.56364 15.5 4.36364C15.5 5.16364 14.825 5.81818 14 5.81818C13.175 5.81818 12.5 5.16364 12.5 4.36364C12.5 3.56364 13.175 2.90909 14 2.90909ZM3.5 26.1818V5.81818H6.5V8.72727H21.5V5.81818H24.5V12.6255C23.135 12 21.62 11.6364 20 11.6364H6.5V14.5455H12.65C11.75 15.3745 11.06 16.3636 10.52 17.4545H6.5V20.3636H9.62C9.545 20.8436 9.5 21.3236 9.5 21.8182C9.5 23.3891 9.875 24.8582 10.52 26.1818H3.5ZM20 29.0909C15.86 29.0909 12.5 25.8327 12.5 21.8182C12.5 17.8036 15.86 14.5455 20 14.5455C24.14 14.5455 27.5 17.8036 27.5 21.8182C27.5 25.8327 24.14 29.0909 20 29.0909ZM20.75 22.1818L25.04 24.64L23.915 26.4145L18.5 23.2727V16H20.75V22.1818Z" fill="black"/>
</svg>
