<svg width="54" height="54" viewBox="0 0 54 54" fill="none" xmlns="http://www.w3.org/2000/svg">
<path fill-rule="evenodd" clip-rule="evenodd" d="M22.1111 19.3889C22.1111 18.0923 22.6262 16.8488 23.543 15.9319C24.4599 15.0151 25.7034 14.5 27 14.5C28.2966 14.5 29.5401 15.0151 30.457 15.9319C31.3738 16.8488 31.8889 18.0923 31.8889 19.3889C31.8889 20.6855 31.3738 21.929 30.457 22.8459C29.5401 23.7627 28.2966 24.2778 27 24.2778C25.7034 24.2778 24.4599 23.7627 23.543 22.8459C22.6262 21.929 22.1111 20.6855 22.1111 19.3889ZM22.1111 26.7222C20.4903 26.7222 18.936 27.3661 17.7899 28.5121C16.6438 29.6582 16 31.2126 16 32.8333C16 33.8058 16.3863 34.7384 17.0739 35.4261C17.7616 36.1137 18.6942 36.5 19.6667 36.5H34.3333C35.3058 36.5 36.2384 36.1137 36.9261 35.4261C37.6137 34.7384 38 33.8058 38 32.8333C38 31.2126 37.3562 29.6582 36.2101 28.5121C35.064 27.3661 33.5097 26.7222 31.8889 26.7222H22.1111Z" fill="#FF8D00"/>
<path d="M52 27C52 30.283 51.3534 33.5339 50.097 36.5671C48.8406 39.6002 46.9991 42.3562 44.6777 44.6777C42.3562 46.9991 39.6002 48.8406 36.5671 50.097C33.5339 51.3534 30.283 52 27 52C23.717 52 20.4661 51.3534 17.4329 50.097C14.3998 48.8406 11.6438 46.9991 9.32233 44.6777C7.00087 42.3562 5.15938 39.6002 3.90301 36.5671C2.64664 33.5339 2 30.283 2 27C2 20.3696 4.63392 14.0107 9.32233 9.32233C14.0107 4.63392 20.3696 2 27 2C33.6304 2 39.9893 4.63392 44.6777 9.32233C49.3661 14.0107 52 20.3696 52 27Z" stroke="#FF8D00" stroke-width="3.125" stroke-linecap="round" stroke-linejoin="round"/>
</svg>
