<svg width="36" height="35" viewBox="0 0 36 35" fill="none" xmlns="http://www.w3.org/2000/svg">
<path d="M18 35C27.665 35 35.5 27.165 35.5 17.5C35.5 7.83502 27.665 0 18 0C8.33502 0 0.5 7.83502 0.5 17.5C0.5 27.165 8.33502 35 18 35Z" fill="#FF8D00" fill-opacity="0.7"/>
<path opacity="0.2" d="M26.7471 17.5003C26.7471 13.9456 24.6689 10.9378 21.6064 9.57058C20.6768 9.13308 20.1846 9.84402 20.1846 10.4456V15.094C20.1846 15.5315 20.5674 15.8596 21.0049 15.8596H22.7002C23.5205 15.8596 23.7393 16.4612 23.1924 17.1721L18.9814 22.5315C18.4346 23.1878 17.5596 23.1878 17.0674 22.5315L12.8564 17.1721C12.3096 16.5159 12.5283 15.8596 13.3486 15.8596H15.0439C15.4814 15.8596 15.8643 15.5315 15.8643 15.094V10.4456C15.8643 9.84402 15.0439 9.29714 14.333 9.57058C11.9814 10.6643 10.1768 12.7971 9.57519 15.3675C6.89551 15.805 4.87207 18.0471 4.87207 20.7815C4.87207 23.7893 7.33301 26.2503 10.3408 26.2503H26.7471C29.1533 26.2503 31.1221 24.2815 31.1221 21.8753C31.1221 19.469 29.1533 17.5003 26.7471 17.5003Z" fill="#231F20"/>
<path d="M26.7471 16.4069C26.7471 12.8522 24.6689 9.84435 21.6064 8.47717C20.6768 8.03967 20.1846 8.7506 20.1846 9.35217V14.0006C20.1846 14.4381 20.5674 14.7662 21.0049 14.7662H22.7002C23.5205 14.7662 23.7393 15.3678 23.1924 16.0787L18.9814 21.4381C18.4346 22.0943 17.5596 22.0943 17.0674 21.4381L12.8564 16.0787C12.3096 15.4225 12.5283 14.7662 13.3486 14.7662H15.0439C15.4814 14.7662 15.8643 14.4381 15.8643 14.0006V9.35217C15.8643 8.7506 15.0439 8.20373 14.333 8.47717C11.9814 9.57092 10.1768 11.7037 9.57519 14.274C6.89551 14.7115 4.87207 16.9537 4.87207 19.6881C4.87207 22.6959 7.33301 25.1568 10.3408 25.1568H26.7471C29.1533 25.1568 31.1221 23.1881 31.1221 20.7818C31.1221 18.3756 29.1533 16.4069 26.7471 16.4069Z" fill="white"/>
</svg>
